<svg width="122" height="28" viewBox="0 0 122 28" fill="none" xmlns="http://www.w3.org/2000/svg">
<path d="M21.3 22.53C20.86 24.05 20.23 25.19 19.41 25.95C18.43 26.85 17.08 27.3 15.36 27.3C14.44 27.3 13.54 27.16 12.66 26.88C11.78 26.6 10.67 26.16 9.33 25.56C7.85 24.92 6.64 24.44 5.7 24.12L4.98 23.91C4.12 24.21 3.29 24.36 2.49 24.36C1.57 24.36 1.11 24.16 1.11 23.76C1.11 23.34 1.65 23.13 2.73 23.13C3.43 23.13 4.18 23.21 4.98 23.37C5.62 23.19 6.36 22.91 7.2 22.53C7.72 22.29 8.11 22.12 8.37 22.02C6.67 21.86 5.19 21.33 3.93 20.43C2.69 19.53 1.72 18.3 1.02 16.74C0.34 15.16 0 13.32 0 11.22C0 9.02 0.4 7.07 1.2 5.37C2.02 3.67 3.15 2.35 4.59 1.41C6.05 0.470001 7.7 0 9.54 0C11.44 0 13.1 0.43 14.52 1.29C15.96 2.15 17.07 3.4 17.85 5.04C18.65 6.66 19.05 8.6 19.05 10.86C19.05 12.94 18.69 14.8 17.97 16.44C17.25 18.06 16.24 19.36 14.94 20.34C13.64 21.3 12.15 21.86 10.47 22.02V22.05C9.99 22.11 9.57 22.19 9.21 22.29C8.87 22.41 8.41 22.59 7.83 22.83C7.11 23.15 6.51 23.38 6.03 23.52C8.25 23.96 10.13 24.31 11.67 24.57C13.23 24.83 14.52 24.96 15.54 24.96C16.96 24.96 18.08 24.75 18.9 24.33C19.74 23.93 20.39 23.27 20.85 22.35L21.3 22.53ZM3 11.1C3 13.18 3.29 15.01 3.87 16.59C4.47 18.17 5.27 19.39 6.27 20.25C7.27 21.11 8.39 21.54 9.63 21.54C10.91 21.54 12.03 21.1 12.99 20.22C13.97 19.32 14.72 18.07 15.24 16.47C15.78 14.87 16.05 13.04 16.05 10.98C16.05 8.9 15.75 7.07 15.15 5.49C14.57 3.91 13.78 2.69 12.78 1.83C11.78 0.970001 10.66 0.54 9.42 0.54C8.14 0.54 7.01 0.99 6.03 1.89C5.07 2.77 4.32 4.01 3.78 5.61C3.26 7.21 3 9.04 3 11.1Z" fill="white"/>
<path d="M39.6363 4.02C38.9363 4.06 38.4163 4.17 38.0763 4.35C37.7363 4.51 37.5063 4.79 37.3863 5.19C37.2663 5.57 37.2063 6.14 37.2063 6.9V13.53C37.2063 14.91 37.1063 16.09 36.9063 17.07C36.7263 18.03 36.4163 18.87 35.9763 19.59C35.4963 20.35 34.7963 20.96 33.8763 21.42C32.9763 21.86 31.9463 22.08 30.7863 22.08C28.7263 22.08 27.1463 21.64 26.0463 20.76C25.1663 19.98 24.5763 19.09 24.2763 18.09C23.9763 17.09 23.8263 15.6 23.8263 13.62V6.6C23.8263 5.84 23.7663 5.29 23.6463 4.95C23.5263 4.61 23.2963 4.38 22.9563 4.26C22.6363 4.14 22.1163 4.06 21.3963 4.02V3.42C22.2363 3.48 23.5163 3.51 25.2363 3.51C26.8363 3.51 28.1063 3.48 29.0463 3.42V4.02C28.3263 4.06 27.7963 4.14 27.4563 4.26C27.1363 4.38 26.9163 4.61 26.7963 4.95C26.6763 5.29 26.6163 5.84 26.6163 6.6V14.13C26.6163 15.61 26.7163 16.84 26.9163 17.82C27.1163 18.78 27.5363 19.56 28.1763 20.16C28.8363 20.74 29.7963 21.03 31.0563 21.03C33.0563 21.03 34.4663 20.4 35.2863 19.14C36.1063 17.88 36.5163 16.12 36.5163 13.86V6.9C36.5163 5.82 36.3163 5.08 35.9163 4.68C35.5363 4.28 34.8263 4.06 33.7863 4.02V3.42C34.5063 3.48 35.5263 3.51 36.8463 3.51C38.0463 3.51 38.9763 3.48 39.6363 3.42V4.02Z" fill="white"/>
<path d="M56.0428 19.14C56.5828 20.38 57.2728 21.02 58.1128 21.06V21.66C57.3128 21.6 56.2428 21.57 54.9028 21.57C53.1828 21.57 51.9028 21.6 51.0628 21.66V21.06C51.8028 21.02 52.3428 20.92 52.6828 20.76C53.0428 20.6 53.2228 20.33 53.2228 19.95C53.2228 19.63 53.0828 19.16 52.8028 18.54L51.2728 15.12H43.9828L42.9628 17.37C42.6228 18.15 42.4528 18.79 42.4528 19.29C42.4528 19.81 42.6328 20.22 42.9928 20.52C43.3728 20.8 43.9728 20.98 44.7928 21.06V21.66C44.1928 21.6 43.2828 21.57 42.0628 21.57C40.8428 21.57 39.9728 21.6 39.4528 21.66V21.06C39.9928 20.92 40.4528 20.62 40.8328 20.16C41.2128 19.68 41.5728 19.05 41.9128 18.27L48.5428 3.27H49.0228L56.0428 19.14ZM51.0328 14.52L47.6428 6.9L44.2228 14.52H51.0328Z" fill="white"/>
<path d="M66.9391 4.02C66.2191 4.06 65.6891 4.14 65.3491 4.26C65.0291 4.38 64.8092 4.61 64.6891 4.95C64.5691 5.29 64.5091 5.84 64.5091 6.6V18.48C64.5091 19.24 64.5691 19.79 64.6891 20.13C64.8092 20.47 65.0291 20.7 65.3491 20.82C65.6891 20.92 66.2191 20.97 66.9391 20.97H68.8291C70.2091 20.97 71.2791 20.56 72.0391 19.74C72.8191 18.92 73.2891 17.56 73.4491 15.66H74.1391C74.0791 16.28 74.0491 17.1 74.0491 18.12C74.0491 19.16 74.1191 20.34 74.2591 21.66C72.9591 21.6 70.7691 21.57 67.6891 21.57C63.9891 21.57 61.1891 21.6 59.2891 21.66V21.06C60.0091 21.02 60.5291 20.94 60.8491 20.82C61.1891 20.7 61.4191 20.47 61.5391 20.13C61.6591 19.79 61.7191 19.24 61.7191 18.48V6.6C61.7191 5.84 61.6591 5.29 61.5391 4.95C61.4191 4.61 61.1891 4.38 60.8491 4.26C60.5291 4.14 60.0091 4.06 59.2891 4.02V3.42C60.1291 3.48 61.4091 3.51 63.1291 3.51C64.7291 3.51 65.9991 3.48 66.9391 3.42V4.02Z" fill="white"/>
<path d="M84.1364 4.02C83.4164 4.06 82.8864 4.14 82.5464 4.26C82.2264 4.38 82.0064 4.61 81.8864 4.95C81.7664 5.29 81.7064 5.84 81.7064 6.6V18.48C81.7064 19.24 81.7664 19.79 81.8864 20.13C82.0064 20.47 82.2264 20.7 82.5464 20.82C82.8864 20.94 83.4164 21.02 84.1364 21.06V21.66C83.2164 21.6 81.9464 21.57 80.3264 21.57C78.6064 21.57 77.3264 21.6 76.4864 21.66V21.06C77.2064 21.02 77.7264 20.94 78.0464 20.82C78.3864 20.7 78.6164 20.47 78.7364 20.13C78.8564 19.79 78.9164 19.24 78.9164 18.48V6.6C78.9164 5.84 78.8564 5.29 78.7364 4.95C78.6164 4.61 78.3864 4.38 78.0464 4.26C77.7264 4.14 77.2064 4.06 76.4864 4.02V3.42C77.3264 3.48 78.6064 3.51 80.3264 3.51C81.9264 3.51 83.1964 3.48 84.1364 3.42V4.02Z" fill="white"/>
<path d="M103.302 3.42C103.162 4.74 103.092 5.92 103.092 6.96C103.092 8 103.122 8.82 103.182 9.42H102.492C102.372 8.02 102.182 6.95 101.922 6.21C101.662 5.47 101.242 4.94 100.662 4.62C100.082 4.28 99.2524 4.11 98.1724 4.11H96.2524V18.18C96.2524 19.02 96.3324 19.63 96.4924 20.01C96.6524 20.39 96.9324 20.65 97.3324 20.79C97.7324 20.93 98.3824 21.02 99.2824 21.06V21.66C98.2424 21.6 96.7724 21.57 94.8724 21.57C92.8724 21.57 91.3924 21.6 90.4324 21.66V21.06C91.3324 21.02 91.9824 20.93 92.3824 20.79C92.7824 20.65 93.0624 20.39 93.2224 20.01C93.3824 19.63 93.4624 19.02 93.4624 18.18V4.11H91.5424C90.4624 4.11 89.6324 4.28 89.0524 4.62C88.4724 4.94 88.0524 5.47 87.7924 6.21C87.5324 6.95 87.3424 8.02 87.2224 9.42H86.5324C86.5924 8.78 86.6224 7.96 86.6224 6.96C86.6224 5.92 86.5524 4.74 86.4124 3.42C88.0724 3.48 90.8924 3.51 94.8724 3.51C98.8324 3.51 101.642 3.48 103.302 3.42Z" fill="white"/>
<path d="M118.898 3.54C120.038 3.54 120.808 3.5 121.208 3.42V4.05C120.868 4.13 120.558 4.32 120.278 4.62C119.998 4.92 119.668 5.41 119.288 6.09L114.578 14.52V18.48C114.578 19.24 114.638 19.79 114.758 20.13C114.878 20.47 115.098 20.7 115.418 20.82C115.758 20.94 116.288 21.02 117.008 21.06V21.66C116.088 21.6 114.818 21.57 113.198 21.57C111.478 21.57 110.198 21.6 109.358 21.66V21.06C110.078 21.02 110.598 20.94 110.918 20.82C111.258 20.7 111.488 20.47 111.608 20.13C111.728 19.79 111.788 19.24 111.788 18.48V15.36L105.998 5.73C105.618 5.09 105.298 4.67 105.038 4.47C104.798 4.25 104.538 4.11 104.258 4.05V3.42C105.538 3.5 106.418 3.54 106.898 3.54C108.278 3.54 109.678 3.5 111.098 3.42V4.05C110.418 4.05 109.898 4.11 109.538 4.23C109.178 4.33 108.998 4.57 108.998 4.95C108.998 5.29 109.168 5.76 109.508 6.36L114.038 13.92L117.758 7.38C118.198 6.58 118.418 5.94 118.418 5.46C118.418 4.62 117.728 4.15 116.348 4.05V3.42C117.088 3.5 117.938 3.54 118.898 3.54Z" fill="white"/>
</svg>
