<svg width="50" height="50" viewBox="0 0 50 50" fill="none" xmlns="http://www.w3.org/2000/svg">
<rect width="50" height="50" fill="#041434"/>
<path d="M36.4659 34.1648L37 34.3626C36.7775 35.3736 36.4882 36.2198 36.1321 36.9011C35.7761 37.6044 35.3421 38.1648 34.8303 38.5824C34.4075 38.956 33.8289 39.2857 33.0946 39.5714C32.3602 39.8571 31.459 40 30.3908 40C29.2114 40 28.0542 39.8022 26.9193 39.4066C25.8067 39.033 24.6495 38.5714 23.4478 38.022C22.2684 37.4945 20.9777 36.989 19.5758 36.5055C19.42 36.4615 19.2754 36.4176 19.1419 36.3736C19.0083 36.3297 18.886 36.2967 18.7747 36.2747C18.3519 36.4506 17.8957 36.5824 17.4061 36.6703C16.9166 36.7802 16.4492 36.8352 16.0042 36.8352C15.5591 36.8352 15.1919 36.7692 14.9026 36.6374C14.6134 36.5275 14.4687 36.3516 14.4687 36.1099C14.4687 35.6044 15.0695 35.3516 16.2712 35.3516C17.0501 35.3516 17.8846 35.4615 18.7747 35.6813C19.5981 35.4615 20.299 35.2088 20.8776 34.9231C21.4562 34.6593 22.057 34.4066 22.6801 34.1648C23.3032 33.9231 24.0487 33.7692 24.9165 33.7033L24.9499 34.2308C24.2823 34.2967 23.6926 34.4176 23.1808 34.5934C22.6912 34.7912 22.2017 35 21.7121 35.2198C21.2225 35.4396 20.6328 35.6484 19.943 35.8462C21.2114 36.022 22.5132 36.2088 23.8484 36.4066C25.1836 36.6264 26.452 36.7912 27.6537 36.9011C28.8554 37.033 29.9013 37.0769 30.7914 37.033C32.3046 36.989 33.5063 36.7363 34.3964 36.2747C35.2865 35.8352 35.9764 35.1319 36.4659 34.1648ZM24.0153 10C26.1961 10 28.1099 10.4725 29.7566 11.4176C31.4256 12.3626 32.7163 13.7253 33.6287 15.5055C34.541 17.2637 34.9972 19.4066 34.9972 21.9341C34.9972 24.3956 34.5299 26.5495 33.5953 28.3956C32.6606 30.2418 31.3588 31.6813 29.6898 32.7143C28.0209 33.7473 26.1182 34.2637 23.9819 34.2637C21.7789 34.2637 19.854 33.7912 18.2072 32.8462C16.5605 31.9011 15.2809 30.5385 14.3686 28.7582C13.4562 26.978 13 24.8352 13 22.3297C13 19.8681 13.4673 17.7143 14.4019 15.8681C15.3588 14.022 16.6606 12.5824 18.3074 11.5495C19.9541 10.5165 21.8567 10 24.0153 10ZM23.8818 10.5934C22.5021 10.5934 21.3004 11.0879 20.2768 12.0769C19.2531 13.0659 18.4631 14.4286 17.9068 16.1648C17.3505 17.9011 17.0723 19.9121 17.0723 22.1978C17.0723 24.5275 17.3839 26.5604 18.007 28.2967C18.63 30.011 19.4757 31.3407 20.5438 32.2857C21.612 33.2088 22.8025 33.6703 24.1154 33.6703C25.4951 33.6703 26.6857 33.1758 27.6871 32.1868C28.7107 31.1978 29.5007 29.8352 30.057 28.0989C30.6356 26.3407 30.9249 24.3297 30.9249 22.0659C30.9249 19.7143 30.6022 17.6813 29.9569 15.967C29.3338 14.2527 28.4882 12.9341 27.42 12.011C26.3741 11.0659 25.1947 10.5934 23.8818 10.5934Z" fill="white"/>
</svg>
